<svg width="39" height="27" viewBox="0 0 39 27" fill="none" xmlns="http://www.w3.org/2000/svg">
<path d="M2.288 21.196C1.76533 21.2147 1.35467 21.0747 1.056 20.776C0.757333 20.4773 0.608 20.0947 0.608 19.628C0.608 19.2733 0.72 18.9653 0.944 18.704C1.14933 18.424 1.45733 18.2747 1.868 18.256L2.708 18.2C3.52933 18.144 4.14533 17.892 4.556 17.444C4.98533 16.9773 5.2 16.3147 5.2 15.456V2.856C5.2 2.25867 5.34933 1.81067 5.648 1.512C5.96533 1.19467 6.41333 1.036 6.992 1.036C7.57067 1.036 8.00933 1.19467 8.308 1.512C8.62533 1.81067 8.784 2.25867 8.784 2.856V15.428C8.784 16.604 8.56933 17.6027 8.14 18.424C7.72933 19.2453 7.11333 19.8893 6.292 20.356C5.47067 20.804 4.45333 21.0653 3.24 21.14L2.288 21.196ZM14.4544 21.196C13.8944 21.196 13.4651 21.028 13.1664 20.692C12.8678 20.356 12.7184 19.8893 12.7184 19.292V9.016C12.7184 8.4 12.8678 7.93333 13.1664 7.616C13.4651 7.28 13.8944 7.112 14.4544 7.112C15.0144 7.112 15.4438 7.28 15.7424 7.616C16.0598 7.93333 16.2184 8.4 16.2184 9.016V19.292C16.2184 19.8893 16.0691 20.356 15.7704 20.692C15.4718 21.028 15.0331 21.196 14.4544 21.196ZM14.4544 4.508C13.8011 4.508 13.2878 4.34933 12.9144 4.032C12.5598 3.696 12.3824 3.23867 12.3824 2.66C12.3824 2.06267 12.5598 1.60533 12.9144 1.288C13.2878 0.970666 13.8011 0.812 14.4544 0.812C15.1264 0.812 15.6398 0.970666 15.9944 1.288C16.3491 1.60533 16.5264 2.06267 16.5264 2.66C16.5264 3.23867 16.3491 3.696 15.9944 4.032C15.6398 4.34933 15.1264 4.508 14.4544 4.508ZM23.3272 26.264C22.9165 26.264 22.5805 26.152 22.3192 25.928C22.0578 25.7227 21.8992 25.4427 21.8432 25.088C21.8058 24.7333 21.8712 24.36 22.0392 23.968L23.9432 19.74V21.196L18.8472 9.408C18.6792 8.99733 18.6232 8.61467 18.6792 8.26C18.7352 7.90533 18.9032 7.62533 19.1832 7.42C19.4818 7.196 19.8832 7.084 20.3872 7.084C20.8165 7.084 21.1618 7.18667 21.4232 7.392C21.6845 7.57867 21.9178 7.94267 22.1232 8.484L25.9032 17.92H25.0632L28.9272 8.456C29.1325 7.93333 29.3752 7.57867 29.6552 7.392C29.9352 7.18667 30.3085 7.084 30.7752 7.084C31.1858 7.084 31.5125 7.196 31.7552 7.42C31.9978 7.62533 32.1472 7.90533 32.2032 8.26C32.2592 8.596 32.1938 8.96933 32.0072 9.38L25.2032 24.92C24.9605 25.4427 24.6992 25.7973 24.4192 25.984C24.1392 26.1707 23.7752 26.264 23.3272 26.264ZM36.3294 21.196C35.7694 21.196 35.3401 21.028 35.0414 20.692C34.7428 20.356 34.5934 19.8893 34.5934 19.292V9.016C34.5934 8.4 34.7428 7.93333 35.0414 7.616C35.3401 7.28 35.7694 7.112 36.3294 7.112C36.8894 7.112 37.3188 7.28 37.6174 7.616C37.9348 7.93333 38.0934 8.4 38.0934 9.016V19.292C38.0934 19.8893 37.9441 20.356 37.6454 20.692C37.3468 21.028 36.9081 21.196 36.3294 21.196ZM36.3294 4.508C35.6761 4.508 35.1628 4.34933 34.7894 4.032C34.4348 3.696 34.2574 3.23867 34.2574 2.66C34.2574 2.06267 34.4348 1.60533 34.7894 1.288C35.1628 0.970666 35.6761 0.812 36.3294 0.812C37.0014 0.812 37.5148 0.970666 37.8694 1.288C38.2241 1.60533 38.4014 2.06267 38.4014 2.66C38.4014 3.23867 38.2241 3.696 37.8694 4.032C37.5148 4.34933 37.0014 4.508 36.3294 4.508Z" fill="#212633"/>
</svg>
